<?xml version="1.0" encoding="UTF-8" standalone="no"?>
<!DOCTYPE svg PUBLIC "-//W3C//DTD SVG 1.1//EN"
 "http://www.w3.org/Graphics/SVG/1.1/DTD/svg11.dtd">
<!-- Generated by graphviz version 2.36.0 (20140111.2315)
 -->
<!-- Title: G Pages: 1 -->
<svg width="694pt" height="480pt"
 viewBox="0.00 0.00 694.00 480.00" xmlns="http://www.w3.org/2000/svg" xmlns:xlink="http://www.w3.org/1999/xlink">
<g id="graph0" class="graph" transform="scale(1 1) rotate(0) translate(4 476)">
<title>G</title>
<polygon fill="white" stroke="none" points="-4,4 -4,-476 690,-476 690,4 -4,4"/>
<g id="clust1" class="cluster"><title>cluster_Global</title>
<path fill="none" stroke="gray" d="M20,-8C20,-8 666,-8 666,-8 672,-8 678,-14 678,-20 678,-20 678,-452 678,-452 678,-458 672,-464 666,-464 666,-464 20,-464 20,-464 14,-464 8,-458 8,-452 8,-452 8,-20 8,-20 8,-14 14,-8 20,-8"/>
<text text-anchor="middle" x="343" y="-451.2" font-family="Times,serif" font-size="11.00" fill="gray">Global</text>
</g>
<g id="clust2" class="cluster"><title>cluster_\jBpm4Php</title>
<path fill="none" stroke="gray" d="M28,-16C28,-16 658,-16 658,-16 664,-16 670,-22 670,-28 670,-28 670,-424 670,-424 670,-430 664,-436 658,-436 658,-436 28,-436 28,-436 22,-436 16,-430 16,-424 16,-424 16,-28 16,-28 16,-22 22,-16 28,-16"/>
<text text-anchor="middle" x="343" y="-423.2" font-family="Times,serif" font-size="11.00" fill="gray">jBpm4Php</text>
</g>
<g id="clust3" class="cluster"><title>cluster_\jBpm4Php\REST</title>
<path fill="none" stroke="gray" d="M488,-24C488,-24 650,-24 650,-24 656,-24 662,-30 662,-36 662,-36 662,-396 662,-396 662,-402 656,-408 650,-408 650,-408 488,-408 488,-408 482,-408 476,-402 476,-396 476,-396 476,-36 476,-36 476,-30 482,-24 488,-24"/>
<text text-anchor="middle" x="569" y="-395.2" font-family="Times,serif" font-size="11.00" fill="gray">REST</text>
</g>
<g id="clust4" class="cluster"><title>cluster_\jBpm4Php\REST\Remote</title>
<path fill="none" stroke="gray" d="M496,-32C496,-32 642,-32 642,-32 648,-32 654,-38 654,-44 654,-44 654,-368 654,-368 654,-374 648,-380 642,-380 642,-380 496,-380 496,-380 490,-380 484,-374 484,-368 484,-368 484,-44 484,-44 484,-38 490,-32 496,-32"/>
<text text-anchor="middle" x="569" y="-367.2" font-family="Times,serif" font-size="11.00" fill="gray">Remote</text>
</g>
<g id="clust5" class="cluster"><title>cluster_\jBpm4Php\REST\Remote\Deployment</title>
<path fill="none" stroke="gray" d="M504,-280C504,-280 634,-280 634,-280 640,-280 646,-286 646,-292 646,-292 646,-340 646,-340 646,-346 640,-352 634,-352 634,-352 504,-352 504,-352 498,-352 492,-346 492,-340 492,-340 492,-292 492,-292 492,-286 498,-280 504,-280"/>
<text text-anchor="middle" x="569" y="-339.2" font-family="Times,serif" font-size="11.00" fill="gray">Deployment</text>
</g>
<g id="clust6" class="cluster"><title>cluster_\jBpm4Php\REST\Remote\Runtime</title>
<path fill="none" stroke="gray" d="M514,-200C514,-200 624,-200 624,-200 630,-200 636,-206 636,-212 636,-212 636,-260 636,-260 636,-266 630,-272 624,-272 624,-272 514,-272 514,-272 508,-272 502,-266 502,-260 502,-260 502,-212 502,-212 502,-206 508,-200 514,-200"/>
<text text-anchor="middle" x="569" y="-259.2" font-family="Times,serif" font-size="11.00" fill="gray">Runtime</text>
</g>
<g id="clust7" class="cluster"><title>cluster_\jBpm4Php\REST\Remote\History</title>
<path fill="none" stroke="gray" d="M514,-120C514,-120 624,-120 624,-120 630,-120 636,-126 636,-132 636,-132 636,-180 636,-180 636,-186 630,-192 624,-192 624,-192 514,-192 514,-192 508,-192 502,-186 502,-180 502,-180 502,-132 502,-132 502,-126 508,-120 514,-120"/>
<text text-anchor="middle" x="569" y="-179.2" font-family="Times,serif" font-size="11.00" fill="gray">History</text>
</g>
<g id="clust8" class="cluster"><title>cluster_\jBpm4Php\REST\Remote\Task</title>
<path fill="none" stroke="gray" d="M524,-40C524,-40 614,-40 614,-40 620,-40 626,-46 626,-52 626,-52 626,-100 626,-100 626,-106 620,-112 614,-112 614,-112 524,-112 524,-112 518,-112 512,-106 512,-100 512,-100 512,-52 512,-52 512,-46 518,-40 524,-40"/>
<text text-anchor="middle" x="569" y="-99.2" font-family="Times,serif" font-size="11.00" fill="gray">Task</text>
</g>
<g id="clust9" class="cluster"><title>cluster_\jBpm4Php\Services</title>
<path fill="none" stroke="gray" d="M36,-58C36,-58 424,-58 424,-58 430,-58 436,-64 436,-70 436,-70 436,-226 436,-226 436,-232 430,-238 424,-238 424,-238 36,-238 36,-238 30,-238 24,-232 24,-226 24,-226 24,-70 24,-70 24,-64 30,-58 36,-58"/>
<text text-anchor="middle" x="230" y="-225.2" font-family="Times,serif" font-size="11.00" fill="gray">Services</text>
</g>
<!-- \\jBpm4Php\\REST\\Remote\\Deployment\\Deployment_Service -->
<g id="node1" class="node"><title>\\jBpm4Php\\REST\\Remote\\Deployment\\Deployment_Service</title>
<polygon fill="none" stroke="black" points="638,-324 500,-324 500,-288 638,-288 638,-324"/>
<text text-anchor="middle" x="569" y="-303.2" font-family="Courier,monospace" font-size="11.00">Deployment_Service</text>
</g>
<!-- \\jBpm4Php\\Services\\Abstract_Rest_Command -->
<g id="node5" class="node"><title>\\jBpm4Php\\Services\\Abstract_Rest_Command</title>
<polygon fill="none" stroke="black" points="428,-210 270,-210 270,-174 428,-174 428,-210"/>
<text text-anchor="start" x="315" y="-195.2" font-family="Courier,monospace" font-size="11.00">«abstract»</text>
<text text-anchor="start" x="278" y="-183.2" font-family="Courier,monospace" font-size="11.00">Abstract_Rest_Command</text>
</g>
<!-- \\jBpm4Php\\REST\\Remote\\Deployment\\Deployment_Service&#45;&gt;\\jBpm4Php\\Services\\Abstract_Rest_Command -->
<g id="edge1" class="edge"><title>\\jBpm4Php\\REST\\Remote\\Deployment\\Deployment_Service&#45;&gt;\\jBpm4Php\\Services\\Abstract_Rest_Command</title>
<path fill="none" stroke="black" d="M504.741,-287.907C494.941,-284.384 485.069,-280.399 476,-276 441.721,-259.373 405.876,-234.654 381.222,-216.331"/>
<polygon fill="none" stroke="black" points="383.085,-213.353 372.989,-210.141 378.878,-218.948 383.085,-213.353"/>
</g>
<!-- \\jBpm4Php\\REST\\Remote\\Runtime\\Runtime_Service -->
<g id="node2" class="node"><title>\\jBpm4Php\\REST\\Remote\\Runtime\\Runtime_Service</title>
<polygon fill="none" stroke="black" points="628,-244 510,-244 510,-208 628,-208 628,-244"/>
<text text-anchor="middle" x="569" y="-223.2" font-family="Courier,monospace" font-size="11.00">Runtime_Service</text>
</g>
<!-- \\jBpm4Php\\REST\\Remote\\Runtime\\Runtime_Service&#45;&gt;\\jBpm4Php\\Services\\Abstract_Rest_Command -->
<g id="edge2" class="edge"><title>\\jBpm4Php\\REST\\Remote\\Runtime\\Runtime_Service&#45;&gt;\\jBpm4Php\\Services\\Abstract_Rest_Command</title>
<path fill="none" stroke="black" d="M509.866,-216.933C487.806,-213.493 462.162,-209.493 437.957,-205.718"/>
<polygon fill="none" stroke="black" points="438.467,-202.255 428.047,-204.172 437.388,-209.172 438.467,-202.255"/>
</g>
<!-- \\jBpm4Php\\REST\\Remote\\History\\History_Service -->
<g id="node3" class="node"><title>\\jBpm4Php\\REST\\Remote\\History\\History_Service</title>
<polygon fill="none" stroke="black" points="628,-164 510,-164 510,-128 628,-128 628,-164"/>
<text text-anchor="middle" x="569" y="-143.2" font-family="Courier,monospace" font-size="11.00">History_Service</text>
</g>
<!-- \\jBpm4Php\\REST\\Remote\\History\\History_Service&#45;&gt;\\jBpm4Php\\Services\\Abstract_Rest_Command -->
<g id="edge3" class="edge"><title>\\jBpm4Php\\REST\\Remote\\History\\History_Service&#45;&gt;\\jBpm4Php\\Services\\Abstract_Rest_Command</title>
<path fill="none" stroke="black" d="M509.866,-158.267C487.806,-162.922 462.162,-168.333 437.957,-173.44"/>
<polygon fill="none" stroke="black" points="437.109,-170.042 428.047,-175.531 438.554,-176.891 437.109,-170.042"/>
</g>
<!-- \\jBpm4Php\\REST\\Remote\\Task\\Task_Service -->
<g id="node4" class="node"><title>\\jBpm4Php\\REST\\Remote\\Task\\Task_Service</title>
<polygon fill="none" stroke="black" points="618,-84 520,-84 520,-48 618,-48 618,-84"/>
<text text-anchor="middle" x="569" y="-63.2" font-family="Courier,monospace" font-size="11.00">Task_Service</text>
</g>
<!-- \\jBpm4Php\\REST\\Remote\\Task\\Task_Service&#45;&gt;\\jBpm4Php\\Services\\Abstract_Rest_Command -->
<g id="edge5" class="edge"><title>\\jBpm4Php\\REST\\Remote\\Task\\Task_Service&#45;&gt;\\jBpm4Php\\Services\\Abstract_Rest_Command</title>
<path fill="none" stroke="black" d="M526.925,-84.0189C510.2,-92.4154 491.257,-103.357 476,-116 454.354,-133.938 459.278,-149.238 436,-165 433.846,-166.459 431.609,-167.842 429.308,-169.153"/>
<polygon fill="none" stroke="black" points="427.453,-166.171 420.166,-173.861 430.658,-172.394 427.453,-166.171"/>
</g>
<!-- \\jBpm4Php\\Services\\Rest_Command_Interface -->
<g id="node8" class="node"><title>\\jBpm4Php\\Services\\Rest_Command_Interface</title>
<polygon fill="none" stroke="black" points="197.5,-210 32.5,-210 32.5,-174 197.5,-174 197.5,-210"/>
<text text-anchor="middle" x="115" y="-189.2" font-family="Courier,monospace" font-size="11.00">Rest_Command_Interface</text>
</g>
<!-- \\jBpm4Php\\Services\\Abstract_Rest_Command&#45;&gt;\\jBpm4Php\\Services\\Rest_Command_Interface -->
<g id="edge4" class="edge"><title>\\jBpm4Php\\Services\\Abstract_Rest_Command&#45;&gt;\\jBpm4Php\\Services\\Rest_Command_Interface</title>
<path fill="none" stroke="black" stroke-dasharray="1,5" d="M269.779,-192C249.973,-192 228.517,-192 208.095,-192"/>
<polygon fill="none" stroke="black" points="207.846,-188.5 197.846,-192 207.845,-195.5 207.846,-188.5"/>
</g>
<!-- \\jBpm4Php\\Services\\Runtime_Engine -->
<g id="node6" class="node"><title>\\jBpm4Php\\Services\\Runtime_Engine</title>
<polygon fill="none" stroke="black" points="404.5,-156 293.5,-156 293.5,-120 404.5,-120 404.5,-156"/>
<text text-anchor="middle" x="349" y="-135.2" font-family="Courier,monospace" font-size="11.00">Runtime_Engine</text>
</g>
<!-- \\jBpm4Php\\Services\\Authentication_Type -->
<g id="node7" class="node"><title>\\jBpm4Php\\Services\\Authentication_Type</title>
<polygon fill="none" stroke="black" points="421.5,-102 276.5,-102 276.5,-66 421.5,-66 421.5,-102"/>
<text text-anchor="start" x="315" y="-87.2" font-family="Courier,monospace" font-size="11.00">«abstract»</text>
<text text-anchor="start" x="284.5" y="-75.2" font-family="Courier,monospace" font-size="11.00">Authentication_Type</text>
</g>
</g>
</svg>
